<svg width="600" height="600" viewBox="0 0 600 600" fill="none" xmlns="http://www.w3.org/2000/svg">
<circle cx="300" cy="300" r="300" fill="white"/>
<path d="M100 200C100 144.772 144.772 100 200 100H300V300H200C144.772 300 100 255.228 100 200V200Z" fill="#636364"/>
<path d="M300 300H500V400C500 455.228 455.228 500 400 500V500C344.772 500 300 455.228 300 400V300Z" fill="#5A6379"/>
<path d="M300 150C300 122.386 322.386 100 350 100H400C455.228 100 500 144.772 500 200V300H350C322.386 300 300 277.614 300 250V150Z" fill="#0A0A0A"/>
<path d="M300 300L300 400C300 455.228 255.228 500 200 500V500C144.772 500 100 455.228 100 400L100 300L300 300Z" fill="#3C4354"/>
<path d="M264.031 262.676C264.031 261.152 263.797 259.785 263.328 258.574C262.898 257.324 262.078 256.191 260.867 255.176C259.656 254.121 257.957 253.086 255.77 252.07C253.582 251.055 250.75 250 247.273 248.906C243.406 247.656 239.734 246.25 236.258 244.688C232.82 243.125 229.773 241.309 227.117 239.238C224.5 237.129 222.43 234.688 220.906 231.914C219.422 229.141 218.68 225.918 218.68 222.246C218.68 218.691 219.461 215.469 221.023 212.578C222.586 209.648 224.773 207.148 227.586 205.078C230.398 202.969 233.719 201.348 237.547 200.215C241.414 199.082 245.652 198.516 250.262 198.516C256.551 198.516 262.039 199.648 266.727 201.914C271.414 204.18 275.047 207.285 277.625 211.23C280.242 215.176 281.551 219.688 281.551 224.766H264.09C264.09 222.266 263.562 220.078 262.508 218.203C261.492 216.289 259.93 214.785 257.82 213.691C255.75 212.598 253.133 212.051 249.969 212.051C246.922 212.051 244.383 212.52 242.352 213.457C240.32 214.355 238.797 215.586 237.781 217.148C236.766 218.672 236.258 220.391 236.258 222.305C236.258 223.75 236.609 225.059 237.312 226.23C238.055 227.402 239.148 228.496 240.594 229.512C242.039 230.527 243.816 231.484 245.926 232.383C248.035 233.281 250.477 234.16 253.25 235.02C257.898 236.426 261.98 238.008 265.496 239.766C269.051 241.523 272.02 243.496 274.402 245.684C276.785 247.871 278.582 250.352 279.793 253.125C281.004 255.898 281.609 259.043 281.609 262.559C281.609 266.27 280.887 269.59 279.441 272.52C277.996 275.449 275.906 277.93 273.172 279.961C270.438 281.992 267.176 283.535 263.387 284.59C259.598 285.645 255.359 286.172 250.672 286.172C246.453 286.172 242.293 285.625 238.191 284.531C234.09 283.398 230.359 281.699 227 279.434C223.68 277.168 221.023 274.277 219.031 270.762C217.039 267.246 216.043 263.086 216.043 258.281H233.68C233.68 260.938 234.09 263.184 234.91 265.02C235.73 266.855 236.883 268.34 238.367 269.473C239.891 270.605 241.688 271.426 243.758 271.934C245.867 272.441 248.172 272.695 250.672 272.695C253.719 272.695 256.219 272.266 258.172 271.406C260.164 270.547 261.629 269.355 262.566 267.832C263.543 266.309 264.031 264.59 264.031 262.676Z" fill="white"/>
<path d="M365.727 199.688H383.246V256.055C383.246 262.617 381.84 268.145 379.027 272.637C376.254 277.129 372.406 280.508 367.484 282.773C362.602 285.039 356.977 286.172 350.609 286.172C344.242 286.172 338.578 285.039 333.617 282.773C328.695 280.508 324.828 277.129 322.016 272.637C319.242 268.145 317.855 262.617 317.855 256.055V199.688H335.434V256.055C335.434 259.883 336.039 263.008 337.25 265.43C338.461 267.852 340.199 269.629 342.465 270.762C344.77 271.895 347.484 272.461 350.609 272.461C353.812 272.461 356.527 271.895 358.754 270.762C361.02 269.629 362.738 267.852 363.91 265.43C365.121 263.008 365.727 259.883 365.727 256.055V199.688Z" fill="white"/>
<path d="M352.305 326.277L329.102 397H310.41L342.109 311.688H354.004L352.305 326.277ZM371.582 397L348.32 326.277L346.445 311.688H358.457L390.332 397H371.582ZM370.527 365.242V379.012H325.469V365.242H370.527Z" fill="white"/>
<path d="M245.809 397H227.234L227.352 383.289H245.809C250.418 383.289 254.305 382.254 257.469 380.184C260.633 378.074 263.016 375.008 264.617 370.984C266.258 366.961 267.078 362.098 267.078 356.395V352.234C267.078 347.859 266.609 344.012 265.672 340.691C264.773 337.371 263.426 334.578 261.629 332.312C259.832 330.047 257.625 328.348 255.008 327.215C252.391 326.043 249.383 325.457 245.984 325.457H226.883V311.688H245.984C251.688 311.688 256.902 312.664 261.629 314.617C266.395 316.531 270.516 319.285 273.992 322.879C277.469 326.473 280.145 330.77 282.02 335.77C283.934 340.73 284.891 346.258 284.891 352.352V356.395C284.891 362.449 283.934 367.977 282.02 372.977C280.145 377.977 277.469 382.273 273.992 385.867C270.555 389.422 266.434 392.176 261.629 394.129C256.863 396.043 251.59 397 245.809 397ZM237.195 311.688V397H219.617V311.688H237.195Z" fill="white"/>
</svg>
